<?xml version="1.0" standalone="no"?>
<!DOCTYPE svg PUBLIC "-//W3C//DTD SVG 20010904//EN"
 "http://www.w3.org/TR/2001/REC-SVG-20010904/DTD/svg10.dtd">
<svg version="1.0" xmlns="http://www.w3.org/2000/svg"
 width="351.000000pt" height="351.000000pt" viewBox="0 0 351.000000 351.000000"
 preserveAspectRatio="xMidYMid meet">
<metadata>
Created by potrace 1.11, written by Peter Selinger 2001-2013
</metadata>
<g transform="translate(0.000000,351.000000) scale(0.100000,-0.100000)"
fill="#000000" stroke="none">
<path d="M457 3147 l-49 -12 189 -181 c103 -100 217 -210 253 -244 36 -34 154
-148 263 -254 109 -105 226 -217 260 -250 34 -32 154 -147 267 -256 113 -109
230 -221 260 -250 30 -29 147 -141 260 -250 113 -109 232 -224 265 -255 33
-32 150 -144 260 -250 110 -106 225 -216 255 -245 30 -29 105 -101 167 -161
62 -60 116 -109 120 -109 5 0 36 21 68 48 100 80 163 177 196 302 16 60 18
139 18 960 1 984 1 976 -60 1096 -56 112 -147 202 -264 261 -65 33 -201 60
-282 56 -86 -4 -203 -45 -283 -98 -41 -28 -209 -189 -464 -444 l-399 -400
-411 411 c-226 227 -434 426 -462 444 -54 34 -132 69 -181 80 -56 12 -199 13
-246 1z"/>
<path d="M220 3037 c-101 -79 -168 -181 -200 -304 -19 -73 -20 -108 -19 -972
1 -980 0 -970 59 -1087 178 -349 631 -424 913 -151 85 82 135 179 164 317 3
14 7 99 8 190 1 91 3 166 4 168 0 2 49 -45 109 -105 59 -59 126 -123 150 -141
50 -40 138 -83 207 -103 51 -14 193 -19 255 -7 118 21 227 87 350 212 l85 87
-110 106 c-60 58 -204 197 -320 308 -115 112 -237 228 -270 260 -33 31 -157
150 -275 265 -118 114 -231 222 -250 240 -19 18 -129 124 -245 235 -116 112
-237 228 -270 260 -33 31 -108 103 -167 161 -59 57 -111 104 -115 104 -4 0
-33 -20 -63 -43z"/>
<path d="M2369 1063 c-5 -63 2 -226 12 -268 63 -272 315 -460 594 -442 148 10
152 -2 -71 212 -108 105 -219 212 -248 239 -28 27 -104 100 -168 163 -83 80
-118 109 -119 96z"/>
</g>
</svg>
